<?xml version="1.0" encoding="UTF-8"?>
<svg version="1.1" xmlns="http://www.w3.org/2000/svg" width="740" height="621">
<path d="M0 0 C0.86416715 -0.00115384 1.72833431 -0.00230769 2.61868834 -0.0034965 C5.49816127 -0.00613156 8.37757765 -0.00166681 11.25704765 0.00279331 C13.34870252 0.00235697 15.44035734 0.00148091 17.53201187 0.00020415 C23.26722014 -0.00202851 29.00240969 0.00196366 34.73761559 0.00698221 C40.92700003 0.01130417 47.11638344 0.00983904 53.30576897 0.00907993 C64.02517925 0.00855581 74.74458283 0.01165603 85.46399117 0.01731777 C96.70380622 0.02323913 107.94361884 0.0270846 119.18343544 0.02817059 C119.88285317 0.02823933 120.58227089 0.02830806 121.3028831 0.02837889 C124.85501619 0.02871723 128.40714929 0.02901861 131.95928238 0.02930576 C157.10499705 0.03140498 182.25070855 0.03813899 207.39642143 0.04760838 C231.82187699 0.05679589 256.24733168 0.063878 280.67278862 0.06811619 C281.42597159 0.06824771 282.17915457 0.06837924 282.95516127 0.06851475 C290.51908203 0.0698333 298.08300279 0.07110911 305.64692356 0.07235361 C321.0548678 0.07488968 336.46281199 0.07771093 351.87075615 0.08070469 C352.93335466 0.08091062 352.93335466 0.08091062 354.01741981 0.08112072 C401.3058644 0.09031805 448.59430714 0.10618369 495.88274956 0.12304783 C495.95146414 58.65569363 496.00430903 117.18833755 496.03594555 175.72101544 C496.03968732 182.63635769 496.04357701 189.55169985 496.04754448 196.46704197 C496.04793676 197.15517487 496.04832903 197.84330777 496.0487332 198.55229319 C496.06150057 220.8273356 496.084022 243.10235507 496.11164122 265.3773836 C496.14079412 288.9323033 496.15874873 312.48720262 496.16501504 336.04214114 C496.16912479 350.1423657 496.18209019 364.24252437 496.20649896 378.34272864 C496.22239595 388.02081476 496.22714095 397.69886698 496.22325369 407.3769652 C496.22133832 412.95492312 496.22420807 418.53276615 496.24036598 424.11070347 C496.25508443 429.22941128 496.25562532 434.34792816 496.24544624 439.4666452 C496.24419025 441.30681344 496.24789389 443.14699414 496.2573991 444.98713825 C496.33440739 460.83215549 494.7611865 476.38515189 490.19524956 491.62304783 C489.94178764 492.48559177 489.68832573 493.34813572 489.42718315 494.23681736 C477.93018005 532.02450782 454.66388335 564.72536443 422.88274956 588.12304783 C422.32700249 588.53909275 421.77125542 588.95513767 421.19866753 589.38379002 C394.71666797 608.9868434 359.8982382 621.34145718 326.82467461 621.24609566 C325.83449874 621.2472495 324.84432288 621.24840335 323.82414168 621.24959216 C320.50397968 621.25224044 317.18386611 621.24775136 313.86370659 621.24330235 C311.46029302 621.24373841 309.05687949 621.24461397 306.65346622 621.24589151 C301.42697063 621.24766208 296.20048531 621.24632729 290.97399139 621.2422533 C283.20241518 621.23621231 275.43084613 621.23591806 267.659268 621.23679529 C254.5855358 621.23810855 241.51180866 621.23477022 228.43807793 621.22877789 C215.49404691 621.22286021 202.550018 621.21901181 189.60598564 621.21792507 C188.3986093 621.21782196 188.3986093 621.21782196 187.16684151 621.21771677 C183.07904709 621.21737844 178.99125267 621.21707705 174.90345824 621.21678989 C145.95205521 621.21468966 117.00065494 621.20795281 88.04925346 621.19848728 C59.92392809 621.18930245 31.79860347 621.18221903 3.6732769 621.17797947 C2.80628263 621.17784794 1.93928835 621.17771642 1.04602152 621.17758091 C-7.66071687 621.17626238 -16.36745527 621.17498657 -25.07419367 621.17374205 C-42.81071394 621.17120585 -60.54723415 621.1683846 -78.28375435 621.16539097 C-79.50699047 621.16518503 -79.50699047 621.16518503 -80.75493842 621.16497494 C-135.20904359 621.15577477 -189.66314718 621.13990883 -244.11725044 621.12304783 C-244.18602412 572.34044127 -244.23883373 523.55783964 -244.27044643 474.77519407 C-244.27419823 469.00662376 -244.27808123 463.23805355 -244.28204536 457.46948338 C-244.2828323 456.32113921 -244.28361923 455.17279505 -244.28443 453.98965258 C-244.29745855 435.4333117 -244.32109824 416.87699891 -244.34870883 398.32067465 C-244.3768342 379.25838615 -244.39344173 360.1961123 -244.39951593 341.1338039 C-244.40361762 329.38593011 -244.41653874 317.63813572 -244.44099984 305.89028639 C-244.45694522 297.81752895 -244.46163104 289.74481212 -244.45775457 281.6720401 C-244.45584662 277.02519997 -244.45862212 272.3784979 -244.47486687 267.73168278 C-244.70226381 199.20252708 -225.08156257 135.73139884 -178.21490669 84.44336033 C-176.40017603 82.43600462 -174.66333358 80.38737173 -172.92975044 78.31054783 C-131.82735561 31.3363823 -62.21477855 -0.20848833 0 0 Z M8.50774956 68.37304783 C6.89682426 68.69728733 6.89682426 68.69728733 5.25335503 69.02807713 C-4.44818753 71.0555564 -13.80978815 73.7295376 -23.11725044 77.12304783 C-23.91260201 77.4101865 -24.70795357 77.69732517 -25.52740669 77.99316502 C-45.11314475 85.17098106 -63.38671241 94.64626243 -80.11725044 107.12304783 C-80.72117622 107.57148045 -81.32510201 108.01991306 -81.94732857 108.48193455 C-90.85191894 115.15077151 -99.0876256 122.43198763 -107.11725044 130.12304783 C-107.86748482 130.8320322 -108.61771919 131.54101658 -109.39068794 132.27148533 C-150.47564169 172.0573101 -172.09958888 230.45580411 -173.16936874 286.87155056 C-173.23816718 293.80958528 -173.20914717 300.74736519 -173.17975044 307.68554783 C-173.17472015 309.77604154 -173.17015997 311.86653643 -173.16607857 313.9570322 C-173.15520626 319.01240076 -173.13802799 324.06771068 -173.11725044 329.12304783 C-125.51522803 329.16891138 -77.91320797 329.20411064 -30.31116778 329.22517849 C-24.68036652 329.22767964 -19.04956531 329.23026831 -13.41876411 329.23291111 C-12.29786011 329.23343573 -11.1769561 329.23396035 -10.0220853 329.23450087 C8.08347275 329.24318316 26.189018 329.25894104 44.29456847 329.27735342 C62.89808254 329.29611321 81.50158995 329.30717736 100.10511309 329.31122482 C111.56736422 329.31395731 123.02957912 329.32256057 134.49181909 329.33888076 C142.37162548 329.34952284 150.25141337 329.35263227 158.13122641 329.35005058 C162.66486985 329.34878043 167.19845037 329.35060766 171.73208237 329.36145878 C207.18475901 329.55098056 207.18475901 329.55098056 242.25774956 324.87304783 C243.33169975 324.65688816 244.40564995 324.44072849 245.51214409 324.21801853 C255.21368665 322.19053925 264.57528726 319.51655806 273.88274956 316.12304783 C275.0757769 315.69233982 275.0757769 315.69233982 276.29290581 315.25293064 C295.87864386 308.07511459 314.15221153 298.59983323 330.88274956 286.12304783 C331.48667534 285.67461521 332.09060112 285.22618259 332.71282768 284.76416111 C341.61741805 278.09532415 349.85312471 270.81410803 357.88274956 263.12304783 C358.63298393 262.41406345 359.38321831 261.70507908 360.15618706 260.97461033 C401.2411408 221.18878556 422.865088 162.79029155 423.93486786 106.3745451 C424.00366629 99.43651038 423.97464629 92.49873047 423.94524956 85.56054783 C423.94021926 83.47005412 423.93565909 81.37955923 423.93157768 79.28906345 C423.92070537 74.2336949 423.90352711 69.17838497 423.88274956 64.12304783 C376.28072714 64.07718428 328.67870708 64.04198502 281.0766669 64.02091717 C275.44586564 64.01841601 269.81506442 64.01582734 264.18426323 64.01318455 C263.06335922 64.01265993 261.94245521 64.01213531 260.78758442 64.01159479 C242.68202636 64.0029125 224.57648112 63.98715462 206.47093064 63.96874224 C187.86741657 63.94998245 169.26390917 63.9389183 150.66038603 63.93487084 C139.1981349 63.93213834 127.73591999 63.92353509 116.27368002 63.90721489 C108.39387364 63.89657282 100.51408574 63.89346339 92.6342727 63.89604507 C88.10062927 63.89731523 83.56704875 63.895488 79.03341675 63.88463688 C43.5807401 63.6951151 43.5807401 63.6951151 8.50774956 68.37304783 Z M-173.11725044 360.12304783 C-171.0470916 401.52622463 -160.8435511 439.93984844 -135.11725044 473.12304783 C-134.38893013 474.06277439 -133.66060982 475.00250095 -132.91021919 475.97070408 C-123.95676557 487.18268654 -114.5136729 497.36745154 -103.11725044 506.12304783 C-101.60711372 507.3392783 -101.60711372 507.3392783 -100.06646919 508.58007908 C-78.0967656 526.17007938 -52.25173517 537.58391533 -24.92975044 543.87304783 C-23.67799019 544.17142551 -23.67799019 544.17142551 -22.40094185 544.47583103 C-1.68227144 548.94347402 19.8292641 548.41954475 40.90790367 548.38449717 C45.00871725 548.37990424 49.10951499 548.3869895 53.21032524 548.39245701 C61.20864242 548.40127898 69.20692174 548.39946202 77.20524031 548.39363173 C83.70961887 548.38908912 90.21398693 548.38851347 96.71836662 548.39067936 C97.64899161 548.39098583 98.5796166 548.39129229 99.53844234 548.39160804 C101.42970709 548.39224757 103.32097184 548.392896 105.21223658 548.39355323 C122.87977903 548.39923476 140.54730061 548.39273167 158.21483964 548.38195249 C173.34503877 548.37300713 188.47520722 548.37458137 203.60540581 548.38379002 C221.228176 548.39451086 238.85092801 548.39869802 256.473701 548.39256549 C258.3550202 548.39192846 260.23633941 548.39129972 262.11765862 548.39067936 C263.04303249 548.39037081 263.96840636 548.39006226 264.92182186 548.38974436 C271.41574499 548.38802374 277.90965648 548.39091855 284.4035778 548.39563847 C292.32054053 548.401267 300.23746364 548.39968907 308.15442187 548.38907698 C312.18674274 548.38384854 316.21899771 548.38171502 320.25131798 548.38837528 C323.95207682 548.39439524 327.65270953 548.39096161 331.35345715 548.38042018 C333.3047201 548.37717668 335.25599202 548.38360225 337.20724535 548.39053464 C361.01357596 548.28646543 382.55185663 542.34840758 399.88274956 525.12304783 C411.80509928 512.40419795 420.01845201 495.73076434 419.88274956 478.12304783 C419.00011783 478.12207102 418.1174861 478.12109421 417.20810795 478.1200878 C364.86645489 478.06178341 312.52484324 477.98796211 260.18324131 477.89406155 C253.89492655 477.88279373 247.60661156 477.87165522 241.31829643 477.86059666 C240.0664352 477.85839297 238.81457396 477.85618929 237.52477753 477.85391883 C217.26949911 477.81857113 197.01422074 477.79369272 176.75892293 477.77270081 C155.96659287 477.75091863 135.17430273 477.71784524 114.38200665 477.67434627 C101.55777246 477.64787123 88.73358801 477.63014531 75.90932786 477.62370179 C67.10867299 477.61843522 58.30808063 477.60217568 49.50745928 477.57738217 C44.43417912 477.56341068 39.36101078 477.55418006 34.28771019 477.55803967 C29.63358053 477.56147284 24.97968888 477.55095413 20.3256079 477.52981231 C18.65104907 477.52458359 16.97646527 477.52426778 15.30190694 477.5296522 C1.21572896 477.57029534 -12.35341361 476.12141182 -25.61725044 470.99804783 C-26.79988472 470.54909153 -26.79988472 470.54909153 -28.0064106 470.09106541 C-56.24598109 458.98297165 -79.26905169 437.85689686 -92.1704731 410.31152439 C-99.3419697 393.73460444 -101.91229014 378.19745241 -103.11725044 360.12304783 C-126.21725044 360.12304783 -149.31725044 360.12304783 -173.11725044 360.12304783 Z " fill="#12BBEB" transform="translate(244.11725044250488,-0.1230478286743164)"/>
<path d="M0 0 C3.86474922 0.01311018 7.72948615 0.00856047 11.59425139 0.00629318 C18.26963355 0.00472978 24.94492688 0.01404038 31.6202867 0.03100669 C41.27139603 0.05552013 50.92246296 0.0632145 60.57360004 0.06697067 C76.23672757 0.07351593 91.8998079 0.09342448 107.56290984 0.1218785 C122.7666835 0.14946916 137.97044428 0.17067815 153.17423797 0.18340194 C154.11339955 0.18419011 155.05256113 0.18497828 156.02018215 0.18579034 C160.73227716 0.18970581 165.44437227 0.19349685 170.15646744 0.19722605 C209.16942268 0.22826191 248.18232523 0.28104483 287.19523406 0.34819686 C287.04371349 1.79225481 286.88966938 3.23604813 286.73455596 4.67972457 C286.64904259 5.48376441 286.56352921 6.28780424 286.47542453 7.11620891 C286.1635878 9.60028991 285.61996792 11.87766991 284.84757781 14.25835311 C284.57631072 15.09495468 284.30504363 15.93155624 284.02555633 16.79350936 C283.5836093 18.08901718 283.5836093 18.08901718 283.13273406 19.41069686 C282.66855071 20.78161483 282.66855071 20.78161483 282.19498992 22.18022811 C268.4710139 61.49552425 239.30985109 93.02993165 202.19523406 111.34819686 C176.72269962 123.3293742 151.18175504 125.81493081 123.39046812 125.69639373 C119.5257189 125.68328355 115.66098197 125.68783326 111.79621673 125.69010055 C105.12083457 125.69166394 98.44554124 125.68235335 91.77018142 125.66538703 C82.11907209 125.6408736 72.46800516 125.63317923 62.81686808 125.62942306 C47.15374055 125.6228778 31.49066022 125.60296925 15.82755828 125.57451522 C0.62378462 125.54692457 -14.57997616 125.52571558 -29.78376985 125.51299179 C-30.72293143 125.51220362 -31.66209301 125.51141545 -32.62971403 125.51060339 C-37.34180904 125.50668792 -42.05390415 125.50289688 -46.76599932 125.49916768 C-85.77895455 125.46813181 -124.79185711 125.4153489 -163.80476594 125.34819686 C-163.65324537 123.90413891 -163.49920126 122.4603456 -163.34408784 121.01666915 C-163.25857447 120.21262932 -163.17306109 119.40858949 -163.08495641 118.58018482 C-162.77311968 116.09610382 -162.2294998 113.81872382 -161.45710969 111.43804061 C-161.1858426 110.60143905 -160.91457551 109.76483749 -160.63508821 108.90288436 C-160.34045686 108.03921249 -160.04582551 107.17554061 -159.74226594 106.28569686 C-159.43281037 105.37175155 -159.12335481 104.45780624 -158.8045218 103.51616561 C-145.08054578 64.20086948 -115.91938297 32.66646208 -78.80476594 14.34819686 C-53.3322315 2.36701953 -27.79128692 -0.11853708 0 0 Z " fill="#12C4ED" transform="translate(307.8047659397125,133.6518031358719)"/>
</svg>
